<svg width="29" height="29" viewBox="0 0 29 29" fill="none" xmlns="http://www.w3.org/2000/svg">
<g opacity="0.5">
<path d="M0.93934 26.0815C0.353553 26.6673 0.353553 27.617 0.93934 28.2028C1.52513 28.7886 2.47487 28.7886 3.06066 28.2028L0.93934 26.0815ZM28.2028 3.06067C28.7886 2.47489 28.7886 1.52514 28.2028 0.939354C27.617 0.353568 26.6673 0.353569 26.0815 0.939354L28.2028 3.06067ZM3.06066 28.2028L28.2028 3.06067L26.0815 0.939354L0.93934 26.0815L3.06066 28.2028Z" fill="#007AFF"/>
<path d="M3.06066 0.93934C2.47487 0.353553 1.52513 0.353553 0.93934 0.93934C0.353553 1.52513 0.353553 2.47487 0.93934 3.06066L3.06066 0.93934ZM26.0815 28.2028C26.6673 28.7886 27.617 28.7886 28.2028 28.2028C28.7886 27.617 28.7886 26.6673 28.2028 26.0815L26.0815 28.2028ZM0.93934 3.06066L26.0815 28.2028L28.2028 26.0815L3.06066 0.93934L0.93934 3.06066Z" fill="#007AFF"/>
</g>
</svg>